<svg width="135" height="40" viewBox="0 0 135 40" fill="none" xmlns="http://www.w3.org/2000/svg">
<path fill-rule="evenodd" clip-rule="evenodd" d="M130 0H5C3.67392 0 2.40215 0.526784 1.46447 1.46447C0.526784 2.40215 0 3.67392 0 5V35C0 36.3261 0.526784 37.5979 1.46447 38.5355C2.40215 39.4732 3.67392 40 5 40H130C131.326 40 132.598 39.4732 133.536 38.5355C134.473 37.5979 135 36.3261 135 35V5C135 3.67392 134.473 2.40215 133.536 1.46447C132.598 0.526784 131.326 0 130 0Z" fill="white"/>
<path fill-rule="evenodd" clip-rule="evenodd" d="M51.2103 6.75391C50.7881 6.75391 50.3701 6.83745 49.9803 6.99973C49.5905 7.162 49.2367 7.39978 48.9393 7.6994L48.9376 7.7012C48.3518 8.32124 48.0255 9.1419 48.0255 9.99487C48.0255 10.8479 48.3518 11.6685 48.9375 12.2886L48.9398 12.2908C49.5431 12.8908 50.3594 13.2275 51.2103 13.2275C52.0611 13.2275 52.8775 12.8908 53.4808 12.2908L53.4828 12.2888C54.0709 11.6698 54.3988 10.8487 54.3988 9.99487C54.3988 9.14108 54.0709 8.31989 53.4828 7.70097L53.4812 7.69942C53.1838 7.3998 52.83 7.162 52.4402 6.99973C52.0505 6.83745 51.6325 6.75391 51.2103 6.75391ZM51.2103 12.293C50.6266 12.293 50.0666 12.0621 49.6526 11.6508C49.2432 11.1985 49.0164 10.6101 49.0164 9.99987C49.0164 9.38967 49.2432 8.80128 49.6526 8.34895C50.0666 7.9376 50.6266 7.7067 51.2103 7.7067C51.7939 7.7067 52.3539 7.9376 52.7679 8.34895C53.1774 8.80128 53.4042 9.38967 53.4042 9.99987C53.4042 10.6101 53.1774 11.1985 52.7679 11.6508C52.3539 12.0621 51.7939 12.293 51.2103 12.293Z" fill="#292F36"/>
<path fill-rule="evenodd" clip-rule="evenodd" d="M85.8603 6.75391C85.4381 6.75391 85.0201 6.83745 84.6303 6.99973C84.2405 7.162 83.8867 7.39978 83.5893 7.6994L83.5876 7.7012C83.0018 8.32124 82.6755 9.1419 82.6755 9.99487C82.6755 10.8479 83.0018 11.6685 83.5875 12.2886L83.5898 12.2908C84.1931 12.8908 85.0094 13.2275 85.8603 13.2275C86.7111 13.2275 87.5275 12.8908 88.1308 12.2908L88.1328 12.2888C88.7209 11.6698 89.0488 10.8487 89.0488 9.99487C89.0488 9.14108 88.7209 8.3199 88.1328 7.70097L88.1312 7.69942C87.8338 7.3998 87.48 7.162 87.0902 6.99973C86.7005 6.83745 86.2825 6.75391 85.8603 6.75391ZM85.8603 12.293C85.2766 12.293 84.7166 12.0621 84.3026 11.6508C83.8932 11.1985 83.6664 10.6101 83.6664 9.99987C83.6664 9.38967 83.8932 8.80127 84.3026 8.34893C84.7166 7.9376 85.2766 7.7067 85.8603 7.7067C86.4439 7.7067 87.0039 7.9376 87.4179 8.34893C87.8274 8.80127 88.0542 9.38967 88.0542 9.99987C88.0542 10.6101 87.8274 11.1985 87.4179 11.6508C87.0039 12.0621 86.4439 12.293 85.8603 12.293Z" fill="#292F36"/>
<path d="M56.9369 13.0009C57.3317 13.1602 57.7546 13.2381 58.1803 13.2299C58.663 13.2389 59.1417 13.1402 59.5815 12.941L59.5832 12.9402C59.9829 12.7503 60.3359 12.4749 60.6174 12.1335L60.6752 12.0634L59.9919 11.3801L59.9222 11.4674C59.7116 11.7308 59.4451 11.9439 59.1419 12.0914C58.8387 12.2388 58.5065 12.3169 58.1694 12.3199L58.1677 12.3199C57.8742 12.3275 57.5823 12.2756 57.3096 12.1671C57.0375 12.0589 56.7902 11.8969 56.5825 11.6906C56.1668 11.2355 55.9362 10.6413 55.9362 10.0249C55.9362 9.40841 56.1668 8.81425 56.5825 8.35911C56.7902 8.15288 57.0375 7.9908 57.3096 7.88264C57.5823 7.7742 57.8742 7.7225 58.1677 7.73012L58.1752 7.72975C58.4781 7.71476 58.7801 7.77248 59.0561 7.89809C59.3321 8.02369 59.5741 8.21354 59.7617 8.45175L59.8301 8.53853L60.5165 7.87748L60.4572 7.80601C60.1802 7.47231 59.8312 7.20572 59.4364 7.02627C59.0423 6.84713 58.6128 6.75947 58.18 6.76985C57.7545 6.76169 57.3316 6.83959 56.9369 6.99888C56.5415 7.15845 56.1824 7.3964 55.8814 7.69839C55.5804 8.00038 55.3436 8.36018 55.1853 8.7561C55.0273 9.15131 54.9507 9.57436 54.9602 9.99987C54.9507 10.4254 55.0273 10.8484 55.1853 11.2436C55.3436 11.6396 55.5804 11.9994 55.8814 12.3014C56.1824 12.6033 56.5415 12.8413 56.9369 13.0009Z" fill="#292F36"/>
<path fill-rule="evenodd" clip-rule="evenodd" d="M94.2593 6.89987C94.7348 6.89114 95.1955 7.06482 95.5468 7.38522C95.7245 7.53968 95.8662 7.73125 95.9618 7.94642C96.0573 8.16141 96.1046 8.39473 96.1003 8.62995L96.1002 8.62811L96.0003 8.62987L96.1002 8.63183L96.1003 8.62995C96.1049 8.91622 96.0223 9.19715 95.8635 9.43536L95.8629 9.43619C95.7471 9.60604 95.598 9.74943 95.4253 9.85808C95.6496 9.96796 95.8464 10.1287 95.9993 10.3286C96.2051 10.5911 96.3149 10.9161 96.3103 11.2495L96.3102 11.2477L96.2103 11.2499L96.3102 11.2514L96.3103 11.2495C96.3154 11.4941 96.2668 11.7368 96.1677 11.9606C96.0687 12.1844 95.9216 12.3837 95.737 12.5444C95.3705 12.8819 94.8887 13.0664 94.3905 13.0599L94.3889 13.0599L91.9903 13.1016V6.89987H94.2593ZM94.3333 7.80983C94.4447 7.8065 94.5555 7.82773 94.6579 7.87202C94.7602 7.91631 94.8514 7.98265 94.9253 8.06618L94.9286 8.06961C95.0026 8.14564 95.0605 8.2358 95.0989 8.33469C95.1373 8.43359 95.1553 8.53921 95.152 8.64524C95.1487 8.75128 95.1241 8.85556 95.0796 8.95186C95.0351 9.04817 94.9717 9.13453 94.8931 9.2058L94.8897 9.20884L94.8867 9.21218C94.8079 9.2978 94.7115 9.36522 94.604 9.40974C94.4965 9.45426 94.3807 9.47473 94.2644 9.46987H92.9624L92.9981 7.80987H94.3303L94.3333 7.80983ZM92.9618 12.1599L92.9888 10.3699H94.4103C94.649 10.3699 94.8779 10.4647 95.0467 10.6335C95.2153 10.8021 95.3101 11.0307 95.3103 11.2691C95.3069 11.4975 95.2167 11.716 95.0582 11.8804L95.0554 11.8836C94.9753 11.9741 94.8763 12.0458 94.7654 12.0935C94.6544 12.1413 94.5343 12.1639 94.4136 12.1599H92.9618Z" fill="#292F36"/>
<path fill-rule="evenodd" clip-rule="evenodd" d="M46.8603 6.89987H42.6603V9.97579L42.661 9.98166C42.7086 10.3828 42.6676 10.7894 42.5408 11.1729C42.4186 11.5429 42.2194 11.8826 41.9567 12.1699H41.2703V14.3699H42.2103V13.0999H46.5903V14.3599H47.5303V12.1599H46.8603V6.89987ZM43.6003 9.997V7.83987H45.8303V12.1999H43.1032C43.4713 11.5276 43.6441 10.7645 43.6003 9.997Z" fill="#292F36"/>
<path d="M65.4503 6.89987H61.1303V7.83987H62.8103V13.0999H63.7803V7.83987H65.4503V6.89987Z" fill="#292F36"/>
<path d="M70.8047 6.89987H69.6736L68.2989 10.1936L66.8861 6.90987H65.7554L67.8004 11.4396L67.5992 11.8781L67.5969 11.884C67.5473 12.0131 67.4665 12.1279 67.3618 12.2183C67.2549 12.2809 67.1314 12.3093 67.0078 12.2999L67.0012 12.2999C66.8779 12.2987 66.7571 12.2655 66.6506 12.2035L66.539 12.1385L66.2804 13.0564L66.36 13.0914C66.5616 13.18 66.7789 13.2272 66.999 13.23L67.0046 13.2298C67.3378 13.2154 67.6583 13.098 67.9219 12.8936C68.1838 12.6906 68.3766 12.4117 68.4741 12.0951L70.8047 6.89987Z" fill="#292F36"/>
<path d="M75.9603 6.89987H71.4203V13.0999H72.3903V7.83987H74.9903V13.0999H75.9603V6.89987Z" fill="#292F36"/>
<path d="M78.1003 6.89987H77.1303V13.0999H78.1003V10.3899H80.9003V13.0999H81.8703V6.89987H80.9003V9.46987H78.1003V6.89987Z" fill="#292F36"/>
<path fill-rule="evenodd" clip-rule="evenodd" d="M65.7844 22.476C66.4807 22.0066 67.3004 21.7539 68.1401 21.75C68.7022 21.7392 69.2606 21.8416 69.7822 22.0511C70.3038 22.2606 70.778 22.573 71.1764 22.9695C71.5748 23.366 71.8894 23.8387 72.1013 24.3593C72.3133 24.88 72.4183 25.4379 72.4101 26C72.4101 26.8397 72.1614 27.6606 71.6953 28.3591C71.2291 29.0575 70.5665 29.6023 69.7911 29.9245C69.0157 30.2468 68.1622 30.3321 67.3383 30.1697C66.5145 30.0074 65.7572 29.6046 65.162 29.0122C64.5668 28.4198 64.1605 27.6644 63.9943 26.8413C63.828 26.0182 63.9093 25.1643 64.2279 24.3874C64.5465 23.6105 65.0882 22.9453 65.7844 22.476ZM66.6611 28.2354C67.1084 28.496 67.6237 28.6161 68.1401 28.58C68.4685 28.5724 68.7919 28.4991 69.0915 28.3645C69.391 28.2299 69.6606 28.0366 69.8843 27.7962C70.108 27.5557 70.2812 27.2729 70.3939 26.9644C70.5065 26.6559 70.5562 26.328 70.5401 26C70.5389 25.4823 70.3819 24.977 70.0896 24.5497C69.7974 24.1224 69.3833 23.7929 68.9013 23.6041C68.4193 23.4152 67.8916 23.3758 67.3869 23.4908C66.8822 23.6058 66.4237 23.87 66.0711 24.249C65.7185 24.6281 65.4881 25.1044 65.4098 25.6161C65.3315 26.1279 65.409 26.6513 65.6321 27.1184C65.8553 27.5856 66.2138 27.9747 66.6611 28.2354Z" fill="#292F36"/>
<path fill-rule="evenodd" clip-rule="evenodd" d="M56.4717 22.4711C57.1693 22.0029 57.99 21.752 58.8301 21.75H58.8201C59.3821 21.7392 59.9406 21.8416 60.4622 22.0511C60.9838 22.2606 61.458 22.573 61.8564 22.9695C62.2548 23.366 62.5694 23.8387 62.7813 24.3593C62.9933 24.88 63.0983 25.4379 63.0901 26C63.0901 26.8401 62.8411 27.6614 62.3746 28.3601C61.908 29.0588 61.2448 29.6036 60.4688 29.9255C59.6928 30.2475 58.8388 30.3322 58.0147 30.1691C57.1905 30.0059 56.4332 29.6021 55.8385 29.0087C55.2437 28.4153 54.8381 27.659 54.673 26.8352C54.5079 26.0115 54.5906 25.1573 54.9108 24.3805C55.2309 23.6038 55.7741 22.9393 56.4717 22.4711ZM57.3488 28.2406C57.7973 28.4999 58.3135 28.6182 58.8301 28.58H58.8201C59.1485 28.5724 59.4719 28.4991 59.7715 28.3645C60.071 28.2299 60.3406 28.0366 60.5643 27.7962C60.788 27.5557 60.9612 27.2729 61.0739 26.9644C61.1865 26.6559 61.2362 26.328 61.2201 26C61.2187 25.4819 61.0614 24.9763 60.7686 24.5489C60.4758 24.1215 60.0611 23.7921 59.5785 23.6037C59.0959 23.4153 58.5677 23.3765 58.0628 23.4924C57.5579 23.6084 57.0995 23.8736 56.7474 24.2537C56.3954 24.6338 56.1659 25.111 56.0888 25.6233C56.0118 26.1356 56.0908 26.6593 56.3155 27.1261C56.5402 27.5929 56.9003 27.9812 57.3488 28.2406Z" fill="#292F36"/>
<path d="M47.7401 24.86V23.06L53.8101 23.01C53.8799 23.3825 53.9134 23.761 53.9101 24.14C53.9572 25.6958 53.3978 27.2089 52.3501 28.36C51.7584 28.9796 51.0408 29.4654 50.2456 29.7845C49.4504 30.1036 48.5961 30.2487 47.7401 30.21C46.8511 30.2446 45.9643 30.0994 45.1328 29.783C44.3012 29.4667 43.5421 28.9857 42.9009 28.369C42.2597 27.7522 41.7496 27.0124 41.4011 26.1938C41.0527 25.3752 40.8731 24.4947 40.8731 23.605C40.8731 22.7153 41.0527 21.8348 41.4011 21.0162C41.7496 20.1976 42.2597 19.4577 42.9009 18.841C43.5421 18.2243 44.3012 17.7433 45.1328 17.427C45.9643 17.1106 46.8511 16.9654 47.7401 17C48.5819 16.9927 49.4166 17.1544 50.1947 17.4757C50.9729 17.7969 51.6786 18.271 52.2701 18.87L51.0001 20.14C50.1239 19.294 48.9479 18.8301 47.7301 18.85C46.4571 18.85 45.2362 19.3557 44.336 20.2559C43.4358 21.1561 42.9301 22.377 42.9301 23.65C42.9301 24.923 43.4358 26.1439 44.336 27.0441C45.2362 27.9443 46.4571 28.45 47.7301 28.45C48.3466 28.4746 48.9613 28.3698 49.5348 28.1425C50.1084 27.9151 50.6279 27.5702 51.0601 27.13C51.64 26.5078 51.9924 25.7078 52.0601 24.86H47.7401Z" fill="#292F36"/>
<path fill-rule="evenodd" clip-rule="evenodd" d="M91.6516 22.5388C92.3017 23.0228 92.7893 23.6927 93.0501 24.46L93.2601 24.91L87.5701 27.26C87.7444 27.6569 88.0341 27.9922 88.4015 28.2222C88.7689 28.4523 89.197 28.5665 89.6301 28.55C90.0508 28.5511 90.4646 28.4429 90.831 28.236C91.1973 28.0292 91.5037 27.7308 91.7201 27.37L93.1701 28.37C92.7815 28.9516 92.2547 29.4278 91.6369 29.7559C91.0191 30.084 90.3296 30.2538 89.6301 30.25C89.0712 30.2582 88.5163 30.1536 87.9986 29.9426C87.4809 29.7315 87.0111 29.4183 86.6172 29.0216C86.2233 28.6249 85.9134 28.1528 85.706 27.6337C85.4986 27.1145 85.398 26.5589 85.4101 26C85.376 25.4541 85.4541 24.9069 85.6397 24.3924C85.8254 23.8778 86.1146 23.4069 86.4895 23.0085C86.8644 22.6102 87.317 22.293 87.8194 22.0765C88.3217 21.8601 88.8631 21.7489 89.4101 21.75C90.22 21.7798 91.0016 22.0549 91.6516 22.5388ZM87.3727 24.9674C87.2715 25.2604 87.2299 25.5707 87.2501 25.88L91.0501 24.3C90.9039 24.0117 90.6762 23.7727 90.3953 23.6127C90.1144 23.4527 89.7927 23.3787 89.4701 23.4C89.1605 23.414 88.8567 23.4896 88.5767 23.6224C88.2966 23.7553 88.0458 23.9426 87.8391 24.1736C87.6324 24.4045 87.4738 24.6744 87.3727 24.9674Z" fill="#292F36"/>
<path d="M84.5001 30H82.6301V17.5H84.5001V30Z" fill="#292F36"/>
<path fill-rule="evenodd" clip-rule="evenodd" d="M79.5001 22.7H79.5701V22H81.2901V29.57C81.2901 32.71 79.4801 34 77.2901 34C76.4832 34.0048 75.6932 33.7685 75.0215 33.3213C74.3498 32.874 73.827 32.2364 73.5201 31.49L75.1501 30.81C75.3167 31.2456 75.6092 31.6219 75.9903 31.8908C76.3714 32.1597 76.8239 32.3091 77.2901 32.32C78.6901 32.32 79.5601 31.45 79.5601 29.82V29.21H79.5001C79.2225 29.5302 78.8781 29.7857 78.4911 29.9585C78.1041 30.1313 77.6839 30.2171 77.2601 30.21C76.1673 30.157 75.1368 29.6856 74.3821 28.8934C73.6274 28.1013 73.2065 27.0491 73.2065 25.955C73.2065 24.8609 73.6274 23.8087 74.3821 23.0166C75.1368 22.2244 76.1673 21.753 77.2601 21.7C77.6829 21.6994 78.101 21.7882 78.487 21.9606C78.8731 22.1329 79.2183 22.3849 79.5001 22.7ZM77.427 28.5797C76.7832 28.5222 76.184 28.226 75.7474 27.7492C75.3101 27.2716 75.0675 26.6475 75.0675 26C75.0675 25.3524 75.3101 24.7284 75.7474 24.2508C76.1847 23.7733 76.7851 23.4768 77.4301 23.42C77.75 23.4364 78.0633 23.5167 78.3516 23.656C78.6399 23.7954 78.8974 23.9911 79.109 24.2315C79.3205 24.4719 79.4818 24.7523 79.5833 25.056C79.6849 25.3597 79.7246 25.6807 79.7001 26C79.7274 26.3207 79.6894 26.6436 79.5883 26.9492C79.4872 27.2547 79.3252 27.5366 79.1121 27.7778C78.899 28.019 78.6391 28.2144 78.3483 28.3523C78.0596 28.4892 77.7462 28.5665 77.427 28.5797Z" fill="#292F36"/>
<path fill-rule="evenodd" clip-rule="evenodd" d="M97.3401 17.5H101.82C102.353 17.4617 102.888 17.5336 103.392 17.7113C103.896 17.8889 104.358 18.1685 104.749 18.5325C105.14 18.8965 105.452 19.3373 105.666 19.8272C105.879 20.3171 105.989 20.8457 105.989 21.38C105.989 21.9143 105.879 22.4429 105.666 22.9328C105.452 23.4227 105.14 23.8635 104.749 24.2275C104.358 24.5915 103.896 24.8711 103.392 25.0487C102.888 25.2264 102.353 25.2983 101.82 25.26H99.2101V30H97.3401V17.5ZM99.2001 23.5H101.81L101.85 23.53C102.419 23.53 102.965 23.304 103.367 22.9017C103.769 22.4995 103.995 21.9539 103.995 21.385C103.995 20.8161 103.769 20.2705 103.367 19.8683C102.965 19.466 102.419 19.24 101.85 19.24H99.2001V23.5Z" fill="#292F36"/>
<path fill-rule="evenodd" clip-rule="evenodd" d="M111.39 22.1577C111.982 21.8184 112.659 21.6593 113.34 21.7L113.39 21.73C115.52 21.73 117.18 23 117.18 25.19V30H115.38V29H115.32C115.065 29.397 114.707 29.718 114.285 29.9291C113.862 30.1402 113.391 30.2338 112.92 30.2C112.535 30.2285 112.148 30.1794 111.782 30.0557C111.416 29.932 111.078 29.7362 110.789 29.4798C110.5 29.2234 110.266 28.9117 110.099 28.563C109.933 28.2144 109.838 27.8359 109.82 27.45C109.82 25.64 111.63 24.64 113.42 24.64C114.1 24.6371 114.77 24.802 115.37 25.12V24.99C115.347 24.7522 115.276 24.5214 115.162 24.3112C115.048 24.101 114.894 23.9156 114.708 23.7657C114.521 23.6158 114.307 23.5045 114.078 23.4383C113.848 23.3721 113.608 23.3523 113.37 23.38C113.028 23.352 112.685 23.4241 112.383 23.5874C112.082 23.7508 111.834 23.9983 111.67 24.3L110.01 23.61C110.319 23.0018 110.798 22.497 111.39 22.1577ZM111.65 27.49C111.65 28.24 112.5 28.55 113.11 28.55L113.16 28.58C113.705 28.5667 114.227 28.357 114.629 27.9895C115.032 27.622 115.288 27.1214 115.35 26.58C114.831 26.2904 114.244 26.1453 113.65 26.16C112.71 26.16 111.65 26.49 111.65 27.49Z" fill="#292F36"/>
<path d="M121.6 27.42L123.74 22H125.82L120.7 33.79H118.75L120.65 29.58L117.32 22H119.32L121.54 27.42H121.6Z" fill="#292F36"/>
<path d="M108.8 30H106.93V17.5H108.8V30Z" fill="#292F36"/>
<path d="M10.5454 32.6982L22.7959 19.9919L10.5556 7.30842C10.2287 7.50589 10.0264 7.9631 10.0264 8.56159V31.4571C10.0308 32.0556 10.2258 32.4794 10.5454 32.6982Z" fill="#292F36"/>
<path d="M26.8838 15.8557L23.2348 19.641L23.2333 19.6395L11.1997 7.17322C11.4892 7.17365 11.7734 7.25331 12.0236 7.40411L26.8838 15.8557Z" fill="#292F36"/>
<path d="M23.2347 20.3443L11.163 32.8652C11.466 32.8705 11.7645 32.7885 12.0251 32.6283L26.9146 24.1539L23.2347 20.3443Z" fill="#292F36"/>
<path d="M27.3222 16.1048L32.2672 18.9225C33.3111 19.5165 33.3111 20.4992 32.2658 21.0962L27.35 23.9063L23.5734 19.9934L27.3222 16.1048Z" fill="#292F36"/>
</svg>
