<svg width="135" height="40" viewBox="0 0 135 40" fill="none" xmlns="http://www.w3.org/2000/svg">
<path d="M1.43496 38.5058C0.547491 37.6034 0 36.3656 0 35V5C0 2.23858 2.23858 0 5 0H130C131.352 0 132.579 0.536546 133.478 1.40831C133.498 1.42686 133.517 1.44558 133.536 1.46447C133.554 1.48333 133.573 1.50236 133.592 1.52152C134.463 2.42148 135 3.64808 135 5V35C135 36.3471 134.467 37.5699 133.601 38.4689C133.579 38.4913 133.558 38.5135 133.536 38.5355C133.513 38.5577 133.491 38.5796 133.469 38.6013C132.569 39.4674 131.347 40 130 40H5C3.63576 40 2.39913 39.4536 1.49699 38.5678C1.48611 38.5571 1.47526 38.5463 1.46447 38.5355C1.45458 38.5257 1.44475 38.5157 1.43496 38.5058Z" fill="white"/>
<path d="M29.0639 10.2818C29.8967 9.24035 30.4665 7.82353 30.3083 6.38574C29.103 6.4391 27.5957 7.21945 26.7277 8.238C25.9597 9.13554 25.2737 10.6067 25.4509 11.9901C26.8048 12.0911 28.195 11.307 29.0639 10.2818Z" fill="#292F36"/>
<path d="M32.1129 19.3125C32.0855 16.2646 34.5895 14.77 34.7406 14.6798L34.7436 14.678C33.3039 12.579 31.0724 12.2922 30.2883 12.2693C29.1417 12.1487 28.0161 12.5954 27.0964 12.9604C26.5128 13.1921 26.0121 13.3908 25.6415 13.3908C25.2195 13.3908 24.7043 13.1838 24.127 12.9518C23.372 12.6485 22.5109 12.3024 21.613 12.3208C19.574 12.3522 17.6665 13.5328 16.6203 15.366C14.4612 19.1038 16.0715 24.5968 18.14 27.6181C19.1748 29.0978 20.3839 30.75 21.9665 30.6919C22.6844 30.6623 23.1938 30.4479 23.7199 30.2264C24.3285 29.9703 24.9595 29.7047 25.9616 29.7047C26.9068 29.7047 27.511 29.9621 28.0908 30.209C28.6466 30.4457 29.1801 30.6729 29.97 30.6547C31.6317 30.628 32.6779 29.1683 33.6765 27.6753C34.8722 25.9793 35.3525 24.309 35.3715 24.2233C35.3324 24.2099 32.1444 22.9932 32.1129 19.3125Z" fill="#292F36"/>
<path fill-rule="evenodd" clip-rule="evenodd" d="M52.356 30.4792H54.5198L50.418 17.7992H47.8969L43.815 30.4792H45.9217L47.0508 26.7546H51.1707L52.356 30.4792ZM49.7415 21.881L50.8134 25.192H47.409L48.4619 21.881C48.7382 20.8282 48.9392 20.0316 49.064 19.4924H49.1022C49.4156 20.7462 49.6281 21.5428 49.7415 21.881Z" fill="#292F36"/>
<path fill-rule="evenodd" clip-rule="evenodd" d="M65.0166 25.7952C65.0166 27.3501 64.5964 28.5793 63.7561 29.4816C63.0033 30.2848 62.0686 30.6859 60.9529 30.6859C59.7486 30.6859 58.8834 30.2533 58.3565 29.3882H58.3184V34.2046H56.287V24.3459C56.287 23.3684 56.2613 22.3651 56.2117 21.336H57.9983L58.1116 22.7853H58.1497C58.8272 21.6933 59.8553 21.1483 61.2349 21.1483C62.3135 21.1483 63.2139 21.5742 63.9342 22.427C64.6565 23.2807 65.0166 24.4031 65.0166 25.7952ZM62.9471 25.8695C62.9471 24.9796 62.747 24.2459 62.345 23.6685C61.9057 23.0663 61.3159 22.7652 60.5765 22.7652C60.0754 22.7652 59.6199 22.9329 59.2131 23.2636C58.8053 23.597 58.5385 24.0325 58.4137 24.5718C58.3508 24.8233 58.3193 25.0291 58.3193 25.1911V26.7156C58.3193 27.3806 58.5233 27.9418 58.9311 28.4001C59.3389 28.8584 59.8686 29.0871 60.5203 29.0871C61.2854 29.0871 61.8809 28.7917 62.3068 28.2029C62.7337 27.6131 62.9471 26.8356 62.9471 25.8695Z" fill="#292F36"/>
<path fill-rule="evenodd" clip-rule="evenodd" d="M74.2715 29.4816C75.1128 28.5793 75.533 27.3501 75.533 25.7952C75.533 24.4031 75.1719 23.2807 74.4525 22.427C73.7303 21.5742 72.8299 21.1483 71.7523 21.1483C70.3716 21.1483 69.3436 21.6933 68.6671 22.7853H68.629L68.5156 21.336H66.729C66.7786 22.3651 66.8043 23.3684 66.8043 24.3459V34.2046H68.8357V29.3882H68.8738C69.3998 30.2533 70.2649 30.6859 71.4693 30.6859C72.585 30.6859 73.5197 30.2848 74.2715 29.4816ZM72.8604 23.6685C73.2624 24.2459 73.4635 24.9796 73.4635 25.8695C73.4635 26.8356 73.2501 27.6131 72.8232 28.2029C72.3973 28.7917 71.8018 29.0871 71.0367 29.0871C70.3831 29.0871 69.8533 28.8575 69.4455 28.4001C69.0396 27.9418 68.8357 27.3806 68.8357 26.7156V25.1911C68.8357 25.0291 68.8681 24.8233 68.93 24.5718C69.0549 24.0325 69.3207 23.597 69.7285 23.2636C70.1363 22.9329 70.5908 22.7652 71.0929 22.7652C71.8332 22.7652 72.4211 23.0663 72.8604 23.6685Z" fill="#292F36"/>
<path d="M87.2907 26.9233C87.2907 28.0019 86.9162 28.8794 86.1645 29.5569C85.3384 30.2972 84.1883 30.6669 82.7105 30.6669C81.3461 30.6669 80.2523 30.4039 79.4243 29.877L79.895 28.1839C80.7868 28.7232 81.7654 28.9938 82.8315 28.9938C83.5966 28.9938 84.1922 28.8204 84.62 28.4755C85.0459 28.1305 85.2583 27.6675 85.2583 27.0901C85.2583 26.5756 85.083 26.142 84.7314 25.7904C84.3818 25.4389 83.7977 25.112 82.9821 24.81C80.762 23.982 79.653 22.7691 79.653 21.1741C79.653 20.1317 80.0417 19.2771 80.8202 18.612C81.5958 17.946 82.6305 17.6135 83.9244 17.6135C85.0783 17.6135 86.0368 17.8145 86.8019 18.2156L86.294 19.8716C85.5794 19.4829 84.7715 19.2885 83.8672 19.2885C83.1526 19.2885 82.5943 19.4648 82.1941 19.8154C81.8559 20.1289 81.6863 20.5109 81.6863 20.9635C81.6863 21.4647 81.8797 21.8792 82.2684 22.205C82.6067 22.5061 83.2212 22.832 84.1131 23.1836C85.204 23.6228 86.0053 24.1364 86.5208 24.7252C87.0344 25.3121 87.2907 26.0467 87.2907 26.9233Z" fill="#292F36"/>
<path d="M91.7678 22.8606H94.0069V21.3342H91.7678V19.0579L89.7726 19.6601V21.3342H88.4387V22.8587H89.7726V27.4674C89.7726 28.6212 89.9994 29.4425 90.4501 29.9323C90.9026 30.4211 91.5296 30.6659 92.3319 30.6659C92.9845 30.6659 93.5114 30.5907 93.9116 30.4411L93.8554 28.8985C93.6172 28.9614 93.3161 28.9928 92.9531 28.9928C92.1623 28.9928 91.7678 28.4288 91.7678 27.2997V22.8606Z" fill="#292F36"/>
<path fill-rule="evenodd" clip-rule="evenodd" d="M104.11 25.8324C104.11 27.2378 103.707 28.3917 102.905 29.294C102.064 30.223 100.947 30.686 99.5551 30.686C98.2136 30.686 97.1455 30.2411 96.3489 29.3512C95.5524 28.4612 95.1541 27.3379 95.1541 25.9839C95.1541 24.5671 95.5638 23.4066 96.3861 22.5043C97.2065 21.601 98.3136 21.1494 99.7057 21.1494C101.047 21.1494 102.127 21.5944 102.941 22.4852C103.721 23.3494 104.11 24.4652 104.11 25.8324ZM102.002 25.8982C102.002 25.0549 101.822 24.3318 101.457 23.7286C101.031 22.9988 100.422 22.6348 99.6332 22.6348C98.8167 22.6348 98.1964 22.9997 97.7705 23.7286C97.4056 24.3327 97.2255 25.0673 97.2255 25.9363C97.2255 26.7795 97.4056 27.5027 97.7705 28.1049C98.2098 28.8347 98.8234 29.1987 99.6151 29.1987C100.391 29.1987 101 28.8271 101.439 28.0858C101.813 27.4713 102.002 26.7405 102.002 25.8982Z" fill="#292F36"/>
<path d="M110.072 23.0663C110.297 23.0663 110.511 23.0854 110.712 23.1225V21.1855C110.562 21.1617 110.392 21.1483 110.204 21.1483C109.678 21.1483 109.189 21.3113 108.736 21.6381C108.273 22.0011 107.935 22.4851 107.721 23.0863H107.664L107.59 21.337H105.821C105.871 22.2021 105.897 23.1616 105.897 24.2154L105.878 30.4792H107.908V25.6818C107.908 24.9548 108.078 24.3526 108.416 23.8762C108.805 23.336 109.357 23.0663 110.072 23.0663Z" fill="#292F36"/>
<path fill-rule="evenodd" clip-rule="evenodd" d="M119.797 25.4751C119.797 25.8391 119.774 26.1459 119.723 26.3964H113.629C113.653 27.2997 113.947 27.9905 114.513 28.4669C115.027 28.8928 115.691 29.1062 116.506 29.1062C117.409 29.1062 118.232 28.9624 118.972 28.6737L119.29 30.0838C118.425 30.4611 117.404 30.6488 116.225 30.6488C114.808 30.6488 113.695 30.2315 112.885 29.3978C112.077 28.5641 111.672 27.4445 111.672 26.0401C111.672 24.6614 112.048 23.5133 112.802 22.5976C113.591 21.62 114.657 21.1312 115.999 21.1312C117.316 21.1312 118.314 21.62 118.991 22.5976C119.528 23.3741 119.797 24.3346 119.797 25.4751ZM117.86 24.9482C117.874 24.346 117.741 23.8258 117.466 23.3865C117.114 22.8215 116.574 22.5395 115.847 22.5395C115.183 22.5395 114.643 22.8148 114.23 23.3675C113.892 23.8067 113.691 24.3336 113.629 24.9472H117.86V24.9482Z" fill="#292F36"/>
<path fill-rule="evenodd" clip-rule="evenodd" d="M51.0976 14.7006H50.041V13.1244H45.8188V14.7006H44.7445L44.7093 12.2351H45.2244C45.4798 11.9885 45.6838 11.6305 45.8364 11.1608C45.989 10.6883 46.0874 10.1541 46.1314 9.55825L46.2987 6.71411H50.3404V12.2351H51.1549L51.0976 14.7006ZM46.4836 12.2351H49.2309V7.61226H47.3597L47.2541 9.41737C47.1748 10.6237 46.918 11.5629 46.4836 12.2351Z" fill="#292F36"/>
<path fill-rule="evenodd" clip-rule="evenodd" d="M52.1384 10.6986C52.1384 10.2319 52.2309 9.81214 52.4158 9.43938C52.6007 9.06368 52.8605 8.77604 53.1951 8.57645C53.5297 8.37393 53.9142 8.27266 54.3486 8.27266C54.9914 8.27266 55.5124 8.47959 55.9115 8.89345C56.3137 9.3073 56.5308 9.85617 56.5631 10.5401L56.5675 10.791C56.5675 11.2606 56.4765 11.6804 56.2946 12.0502C56.1155 12.42 55.8572 12.7062 55.5197 12.9087C55.1851 13.1112 54.7977 13.2125 54.3574 13.2125C53.6852 13.2125 53.1466 12.9894 52.7416 12.5433C52.3395 12.0942 52.1384 11.4969 52.1384 10.7514V10.6986ZM53.2083 10.791C53.2083 11.2812 53.3095 11.6657 53.5121 11.9445C53.7146 12.2204 53.9964 12.3584 54.3574 12.3584C54.7184 12.3584 54.9987 12.2175 55.1983 11.9357C55.4008 11.6539 55.5021 11.2415 55.5021 10.6986C55.5021 10.2172 55.3979 9.83562 55.1895 9.55385C54.984 9.27208 54.7037 9.13119 54.3486 9.13119C53.9993 9.13119 53.7219 9.27061 53.5165 9.54945C53.311 9.82535 53.2083 10.2392 53.2083 10.791Z" fill="#292F36"/>
<path d="M60.5449 12.125C60.3688 12.2806 60.1472 12.3584 59.8801 12.3584C59.5279 12.3584 59.2579 12.2322 59.07 11.9797C58.8851 11.7244 58.7927 11.3384 58.7927 10.8218V10.6501C58.7956 10.1394 58.891 9.75931 59.0788 9.50982C59.2667 9.2574 59.5338 9.13119 59.8801 9.13119C60.1502 9.13119 60.3718 9.21924 60.5449 9.39535C60.721 9.57146 60.815 9.796 60.8267 10.069H61.8349C61.8173 9.53184 61.6295 9.0989 61.2714 8.77017C60.9162 8.4385 60.4554 8.27266 59.8889 8.27266C59.2197 8.27266 58.6914 8.49133 58.304 8.92867C57.9165 9.36307 57.7228 9.94275 57.7228 10.6677V10.7778C57.7228 11.538 57.918 12.1338 58.3084 12.5653C58.6987 12.9968 59.2271 13.2125 59.8933 13.2125C60.2367 13.2125 60.5567 13.1376 60.8531 12.988C61.1496 12.8383 61.3844 12.6357 61.5576 12.3804C61.7307 12.1221 61.8232 11.8447 61.8349 11.5483H60.8267C60.815 11.7772 60.721 11.9695 60.5449 12.125Z" fill="#292F36"/>
<path d="M66.8426 9.21044H65.2972V13.1244H64.2273V9.21044H62.6996V8.36072H66.8426V9.21044Z" fill="#292F36"/>
<path d="M70.6967 8.36072L69.7281 11.5923L68.7199 8.36072H67.5664L69.2394 13.1024L69.0853 13.5119C69.006 13.7437 68.8974 13.9081 68.7595 14.005C68.6245 14.1048 68.4219 14.1547 68.1519 14.1547L67.9494 14.1415V14.9692C68.1372 15.022 68.3089 15.0484 68.4645 15.0484C69.1601 15.0484 69.6532 14.6478 69.9438 13.8465L71.837 8.36072H70.6967Z" fill="#292F36"/>
<path d="M76.9459 13.1244H75.876V9.22365H74.0181V13.1244H72.9482V8.36072H76.9459V13.1244Z" fill="#292F36"/>
<path d="M81.5 13.1244H82.5699V8.36072H81.5V10.3463H79.6465V8.36072H78.5766V13.1244H79.6465V11.2005H81.5V13.1244Z" fill="#292F36"/>
<path fill-rule="evenodd" clip-rule="evenodd" d="M83.9629 10.6986C83.9629 10.2319 84.0553 9.81214 84.2402 9.43938C84.4252 9.06368 84.6849 8.77604 85.0195 8.57645C85.3541 8.37393 85.7386 8.27266 86.173 8.27266C86.8158 8.27266 87.3368 8.47959 87.736 8.89345C88.1381 9.3073 88.3553 9.85617 88.3876 10.5401L88.392 10.791C88.392 11.2606 88.301 11.6804 88.119 12.0502C87.94 12.42 87.6817 12.7062 87.3442 12.9087C87.0095 13.1112 86.6221 13.2125 86.1818 13.2125C85.5097 13.2125 84.9711 12.9894 84.5661 12.5433C84.1639 12.0942 83.9629 11.4969 83.9629 10.7514V10.6986ZM85.0327 10.791C85.0327 11.2812 85.134 11.6657 85.3365 11.9445C85.539 12.2204 85.8208 12.3584 86.1818 12.3584C86.5429 12.3584 86.8232 12.2175 87.0228 11.9357C87.2253 11.6539 87.3265 11.2415 87.3265 10.6986C87.3265 10.2172 87.2223 9.83562 87.014 9.55385C86.8085 9.27208 86.5282 9.13119 86.173 9.13119C85.8238 9.13119 85.5464 9.27061 85.3409 9.54945C85.1355 9.82535 85.0327 10.2392 85.0327 10.791Z" fill="#292F36"/>
<path fill-rule="evenodd" clip-rule="evenodd" d="M92.5252 8.36072V13.1244H94.7574C95.3709 13.1244 95.8405 13.0085 96.1663 12.7766C96.495 12.5447 96.6594 12.2072 96.6594 11.764C96.6594 11.4969 96.5684 11.265 96.3864 11.0684C96.2044 10.8717 95.9579 10.7411 95.6468 10.6765C95.9139 10.5826 96.1149 10.4491 96.2499 10.2759C96.3879 10.0998 96.4569 9.90166 96.4569 9.68153C96.4569 9.25593 96.2866 8.93013 95.9461 8.70413C95.6057 8.47519 95.1096 8.36072 94.458 8.36072H92.5252ZM93.5951 12.2791V11.0948H94.753C95.3107 11.0948 95.5895 11.2929 95.5895 11.6892C95.5895 12.0825 95.3151 12.2791 94.7662 12.2791H93.5951ZM94.4756 10.3287H93.5951V9.21044H94.5241C95.0994 9.22218 95.387 9.4159 95.387 9.79159C95.387 10.1497 95.0832 10.3287 94.4756 10.3287Z" fill="#292F36"/>
</svg>
