<svg width="30" height="30" viewBox="0 0 30 30" fill="none" xmlns="http://www.w3.org/2000/svg">
<path d="M26.2791 29.2681C27.0266 30.0229 28.2387 30.0229 28.9862 29.2681C29.7338 28.5132 29.7338 27.2894 28.9862 26.5345L17.7893 15.2288L29.4394 3.46546C30.1869 2.71062 30.1869 1.48678 29.4394 0.731946C28.6918 -0.022894 27.4797 -0.022894 26.7322 0.731946L15.0821 12.4953L3.26783 0.56613C2.5203 -0.18871 1.30822 -0.18871 0.560692 0.56613C-0.186897 1.32097 -0.186897 2.54481 0.560692 3.29965L12.375 15.2288L1.01379 26.7004C0.266201 27.4552 0.266201 28.679 1.01379 29.4339C1.76132 30.1887 2.9734 30.1887 3.72099 29.4339L15.0822 17.9623L26.2791 29.2681Z" fill="white"/>
</svg>
