<svg width="36" height="36" viewBox="0 0 36 36" fill="none" xmlns="http://www.w3.org/2000/svg">
<rect width="36" height="36" rx="18" fill="white"/>
<path fill-rule="evenodd" clip-rule="evenodd" d="M26.8035 10.2319C27.7672 10.4913 28.5271 11.2512 28.7866 12.215C29.2684 13.9757 29.2499 17.6454 29.2499 17.6454C29.2499 17.6454 29.2499 21.2965 28.7866 23.0572C28.5271 24.0209 27.7672 24.7808 26.8035 25.0403C25.0428 25.5036 18 25.5036 18 25.5036C18 25.5036 10.9757 25.5036 9.19645 25.0218C8.2327 24.7623 7.47281 24.0024 7.21334 23.0387C6.75 21.2965 6.75 17.6268 6.75 17.6268C6.75 17.6268 6.75 13.9757 7.21334 12.215C7.47281 11.2512 8.25123 10.4728 9.19645 10.2133C10.9571 9.75 18 9.75 18 9.75C18 9.75 25.0428 9.75 26.8035 10.2319ZM21.614 17.6268L15.7574 20.9999V14.2537L21.614 17.6268Z" fill="#292F36"/>
</svg>
